#!OML:ASF E:\Steps\Project 1\Capture day 1\Session 2\Subject.ASF
:FULLY-SPECIFIED
:DEGREES
573
root 8.82582 16.2935 18.93 -36.2044 -87.6181 63.2881
lowerback -31.0912 -2.30862 -6.14308
upperback -3.27542 -1.27585 -0.235319
thorax 12.6367 -1.04079 2.52737
lowerneck -0.739956 -0.0846644 -6.42015
upperneck 8.99749 -0.831713 9.80019
head 2.82969 -0.353324 4.00489
rclavicle 1.47101e-014 -3.97569e-015
rhumerus -33.988 -21.2721 -79.1321
rradius 26.22
rwrist 4.76973
rhand -9.07608 -51.0023
rfingers 7.12502
rthumb 16.8732 -80.2892
lclavicle 1.47101e-014 -3.97569e-015
lhumerus -28.6642 5.2128 84.8411
lradius 17.7497
lwrist -8.67298
lhand -22.3942 -12.6174
lfingers 7.12502
lthumb 4.02811 17.3243
rfemur -23.8111 8.59228 17.9441
rtibia 9.01187
rfoot -20.9624 -10.6331
rtoes -24.1832
lfemur -25.8112 -11.7987 -17.6216
ltibia 8.37756
lfoot -7.01162 -2.43827
ltoes -32.4632
574
root 8.82625 16.295 18.9298 -36.4557 -87.6307 63.5463
lowerback -31.107 -2.30223 -6.10451
upperback -3.26678 -1.2784 -0.239668
thorax 12.6532 -1.04046 2.5006
lowerneck -0.737914 -0.0987114 -6.33248
upperneck 9.02106 -0.850025 9.72657
head 2.83775 -0.361973 3.96715
rclavicle -4.74598e-015 1.55052e-014
rhumerus -33.8175 -20.6114 -79.4837
rradius 26.303
rwrist 3.69419
rhand -10.0012 -50.911
rfingers 7.12502
rthumb 15.9825 -80.2716
lclavicle -4.74598e-015 1.55052e-014
lhumerus -28.5701 5.18212 84.8749
lradius 17.9636
lwrist -8.85739
lhand -22.6677 -12.4784
lfingers 7.12502
lthumb 3.76403 17.4681
rfemur -23.7544 9.148 17.7326
rtibia 8.57638
rfoot -20.7413 -10.8507
rtoes -21.5594
lfemur -25.8138 -11.9062 -17.5754
ltibia 8.36702
lfoot -6.968 -2.28629
ltoes -33.1532
575
root 8.82441 16.296 18.9261 -35.4801 -87.6638 62.5849
lowerback -31.143 -2.35051 -6.12578
upperback -3.26354 -1.34135 -0.161857
thorax 12.6803 -1.072 2.5703
lowerneck -0.753287 -0.0916796 -6.30999
upperneck 9.06004 -0.836823 9.65021
head 2.85082 -0.356363 3.94049
rclavicle -2.45996e-015 -2.94201e-014
rhumerus -33.6053 -19.9434 -79.6569
rradius 26.2069
rwrist 3.21056
rhand -9.5005 -50.5425
rfingers 7.12502
rthumb 16.4646 -79.8638
lclavicle -2.45996e-015 -2.94201e-014
lhumerus -28.5151 5.2066 84.9846
lradius 18.1713
lwrist -8.94937
lhand -22.9181 -12.5643
lfingers 7.12502
lthumb 3.52218 17.3863
rfemur -23.6369 9.80376 17.5556
rtibia 8.19064
rfoot -20.8162 -10.9178
rtoes -17.7197
lfemur -25.8301 -11.9844 -17.4674
ltibia 8.3822
lfoot -6.85836 -2.13012
ltoes -34.6371
576
root 8.82099 16.2946 18.9208 -35.008 -87.656 62.101
lowerback -31.1534 -2.42564 -6.19018
upperback -3.27178 -1.4265 -0.0896617
thorax 12.6857 -1.11513 2.64891
lowerneck -0.773838 -0.0734281 -6.33153
upperneck 9.10191 -0.806701 9.57803
head 2.86434 -0.343392 3.92301
rclavicle 2.65874e-015 6.75868e-015
rhumerus -33.4934 -19.5823 -79.7029
rradius 26.1051
rwrist 3.04087
rhand -9.8684 -51.1062
rfingers 7.12502
rthumb 16.1104 -80.4566
lclavicle 2.65874e-015 6.75868e-015
lhumerus -28.5574 4.87383 85.2683
lradius 18.4521
lwrist -8.30427
lhand -22.8015 -12.4413
lfingers 7.12502
lthumb 3.63478 17.5075
rfemur -23.8393 8.69011 17.9908
rtibia 9.01749
rfoot -20.9402 -10.7031
rtoes -23.1834
lfemur -25.8212 -11.935 -17.4597
ltibia 8.41456
lfoot -6.82167 -2.17079
ltoes -35.2573
577
root 8.81775 16.2934 18.9167 -35.0905 -87.6648 62.1576
lowerback -31.1453 -2.46936 -6.22277
upperback -3.28042 -1.48071 -0.0343867
thorax 12.6795 -1.14208 2.7049
lowerneck -0.780176 -0.0577416 -6.35147
upperneck 9.13839 -0.780655 9.50818
head 2.87423 -0.332801 3.90581
rclavicle -5.2181e-016 -9.93923e-015
rhumerus -33.4942 -19.5936 -79.6261
rradius 26.0947
rwrist 3.23644
rhand -10.1408 -50.7279
rfingers 7.12502
rthumb 15.8481 -80.0993
lclavicle -5.2181e-016 -9.93923e-015
lhumerus -28.5741 4.64413 85.4924
lradius 18.6507
lwrist -7.89811
lhand -22.7802 -12.3489
lfingers 7.12502
lthumb 3.65535 17.5995
rfemur -23.7435 9.07017 17.9127
rtibia 8.74729
rfoot -20.8535 -10.9026
rtoes -22.7564
lfemur -25.7867 -11.959 -17.4233
ltibia 8.41374
lfoot -6.81097 -2.18828
ltoes -34.5983
578
root 8.81443 16.2936 18.9142 -35.6828 -87.6887 62.7067
lowerback -31.1226 -2.48243 -6.26957
upperback -3.2727 -1.48747 0.00653478
thorax 12.6812 -1.14785 2.77206
lowerneck -0.822928 -0.0568245 -6.30399
upperneck 9.17588 -0.773999 9.42294
head 2.89199 -0.329163 3.87208
rclavicle 9.29318e-015 3.97569e-016
rhumerus -33.4685 -19.4473 -79.6501
rradius 26.125
rwrist 3.02071
rhand -9.64542 -51.2695
rfingers 7.12502
rthumb 16.3251 -80.6024
lclavicle 9.29318e-015 3.97569e-016
lhumerus -28.4949 4.54635 85.6321
lradius 18.7491
lwrist -7.86282
lhand -23.0994 -12.5071
lfingers 7.12502
lthumb 3.34711 17.4464
rfemur -23.7183 8.90552 17.9879
rtibia 8.95557
rfoot -21.0529 -10.6848
rtoes -22.9775
lfemur -25.6994 -12.1813 -17.333
ltibia 8.34008
lfoot -6.77589 -1.98869
ltoes -33.3471
579
root 8.81143 16.2943 18.912 -36.5538 -87.6931 63.5431
lowerback -31.1219 -2.47007 -6.27008
upperback -3.26707 -1.46752 -0.0191449
thorax 12.6845 -1.1385 2.75245
lowerneck -0.858012 -0.0738241 -6.23197
upperneck 9.20609 -0.7938 9.34983
head 2.90838 -0.337863 3.83719
rclavicle 1.05356e-014 -2.82274e-014
rhumerus -33.4672 -19.3898 -79.7109
rradius 26.127
rwrist 2.95253
rhand -10.2019 -51.06
rfingers 7.12502
rthumb 15.7892 -80.436
lclavicle 1.05356e-014 -2.82274e-014
lhumerus -28.4312 4.35352 85.7122
lradius 18.9207
lwrist -7.6237
lhand -22.936 -12.5906
lfingers 7.12502
lthumb 3.50495 17.3604
rfemur -23.7459 8.29875 18.0639
rtibia 8.82768
rfoot -20.881 -10.0467
rtoes -22.7533
lfemur -25.6317 -12.248 -17.337
ltibia 8.29459
lfoot -6.80991 -1.84074
ltoes -33.9592
580
root 8.80798 16.294 18.9098 -36.768 -87.6417 63.7538
lowerback -31.1722 -2.45829 -6.24952
upperback -3.25476 -1.44647 -0.0859696
thorax 12.7154 -1.12786 2.67618
lowerneck -0.880592 -0.110007 -6.15928
upperneck 9.22662 -0.841923 9.30102
head 2.92201 -0.360285 3.80881
rclavicle 1.08089e-014 5.76476e-015
rhumerus -33.5037 -19.617 -79.6783
rradius 26.1188
rwrist 3.42692
rhand -9.68302 -51.3845
rfingers 7.12502
rthumb 16.2889 -80.7203
lclavicle 1.08089e-014 5.76476e-015
lhumerus -28.3556 4.21592 85.7324
lradius 19.0682
lwrist -7.4058
lhand -22.591 -12.5358
lfingers 7.12502
lthumb 3.8381 17.4094
rfemur -23.7664 7.68996 18.1267
rtibia 8.77739
rfoot -20.8447 -9.43682
rtoes -22.5092
lfemur -25.6304 -12.1128 -17.4576
ltibia 8.33437
lfoot -6.90546 -1.90047
ltoes -35.4344
581
root 8.80354 16.2923 18.9077 -36.0055 -87.5589 63.016
lowerback -31.2525 -2.49586 -6.30709
upperback -3.22517 -1.46578 -0.0986957
thorax 12.785 -1.14093 2.68334
lowerneck -0.931335 -0.133679 -6.05729
upperneck 9.25457 -0.871141 9.22822
head 2.94092 -0.372285 3.76871
rclavicle 1.73688e-014 1.74931e-014
rhumerus -33.4713 -19.7663 -79.6203
rradius 26.114
rwrist 3.63991
rhand -8.21508 -51.1072
rfingers 7.12502
rthumb 17.7019 -80.3215
lclavicle 1.73688e-014 1.74931e-014
lhumerus -28.2282 3.99881 85.8402
lradius 19.1326
lwrist -7.18149
lhand -22.7211 -12.5091
lfingers 7.12502
lthumb 3.71241 17.4383
rfemur -23.632 8.23662 17.985
rtibia 8.63272
rfoot -20.8712 -10.0208
rtoes -22.262
lfemur -25.6384 -12.0654 -17.5513
ltibia 8.34663
lfoot -6.9012 -2.03186
ltoes -35.506
582
root 8.80079 16.2911 18.9054 -34.6013 -87.5138 61.7051
lowerback -31.3731 -2.55561 -6.33655
upperback -3.22704 -1.52939 -0.0746239
thorax 12.8409 -1.17357 2.69657
lowerneck -0.956691 -0.131088 -5.95641
upperneck 9.28468 -0.86432 9.1326
head 2.95339 -0.367935 3.72279
rclavicle 7.10655e-015 2.5842e-014
rhumerus -33.4108 -19.8107 -79.5915
rradius 26.0594
rwrist 3.68978
rhand -8.09123 -51.0556
rfingers 7.12502
rthumb 17.8211 -80.259
lclavicle 7.10655e-015 2.5842e-014
lhumerus -28.1673 3.65698 85.9909
lradius 19.2581
lwrist -6.87428
lhand -22.8485 -12.5258
lfingers 7.12502
lthumb 3.58936 17.4237
rfemur -23.6119 8.24223 18.0438
rtibia 8.71499
rfoot -20.9287 -10.2672
rtoes -23.0233
lfemur -25.7429 -12.0132 -17.5418
ltibia 8.37988
lfoot -6.84629 -2.2226
ltoes -35.2724
583
root 8.79982 16.2904 18.9022 -33.833 -87.5154 61.0373
lowerback -31.4801 -2.59153 -6.34553
upperback -3.24799 -1.57184 -0.053118
thorax 12.8668 -1.19505 2.70482
lowerneck -0.953414 -0.137148 -5.85344
upperneck 9.31573 -0.871647 9.04247
head 2.96244 -0.371262 3.67783
rclavicle -6.03808e-015 -5.98342e-014
rhumerus -33.3901 -19.8818 -79.5654
rradius 26.0025
rwrist 3.84265
rhand -8.34995 -51.1227
rfingers 7.12502
rthumb 17.5721 -80.3486
lclavicle -6.03808e-015 -5.98342e-014
lhumerus -28.1713 3.37613 86.1108
lradius 19.4675
lwrist -6.64841
lhand -22.9632 -12.5041
lfingers 7.12502
lthumb 3.4786 17.4472
rfemur -23.783 7.82281 18.1746
rtibia 8.68096
rfoot -20.6849 -10.0631
rtoes -24.0465
lfemur -25.8729 -11.9224 -17.4975
ltibia 8.42182
lfoot -6.87786 -2.35754
ltoes -35.3858
